<svg width="20" height="18" viewBox="0 0 20 18" xmlns="http://www.w3.org/2000/svg">
    <path d="M16.537 8c.257 0 .466.209.466.467v7.896a.467.467 0 0 1-.466.467h-4.668a.467.467 0 0 1-.467-.467v-4.522c0-.772-.628-1.4-1.4-1.4-.773 0-1.4.628-1.4 1.4v4.522a.467.467 0 0 1-.467.467H3.466A.467.467 0 0 1 3 16.363V8.467a.467.467 0 0 1 .934 0v7.43h3.734V11.84a2.337 2.337 0 0 1 2.334-2.334 2.337 2.337 0 0 1 2.334 2.334v4.056h3.734v-7.43c0-.258.209-.467.467-.467zM9.742 1.118a.467.467 0 0 1 .551 0l8.516 6.235a.467.467 0 1 1-.552.753l-8.24-6.033-8.24 6.033a.467.467 0 0 1-.55-.753z" fill="#4593F5" fill-rule="nonzero" stroke="#4593F5" stroke-width=".5"/>
</svg>
