<svg width="24" height="24" xmlns="http://www.w3.org/2000/svg">
    <path d="m22.736 21.464-3.307-3.306c-.033-.034-.076-.048-.113-.075 3.22-3.847 3.028-9.6-.586-13.212A9.741 9.741 0 0 0 11.798 2a9.74 9.74 0 0 0-6.931 2.87c-3.823 3.822-3.823 10.04 0 13.86a9.738 9.738 0 0 0 6.931 2.872 9.726 9.726 0 0 0 6.284-2.283c.027.036.041.079.074.111l3.307 3.306a.898.898 0 0 0 1.273 0 .9.9 0 0 0 0-1.272zm-10.938-1.662a7.951 7.951 0 0 1-5.658-2.344c-3.12-3.12-3.12-8.195 0-11.315A7.95 7.95 0 0 1 11.798 3.8c2.138 0 4.148.832 5.66 2.343 3.12 3.12 3.12 8.196 0 11.315a7.952 7.952 0 0 1-5.66 2.344z" fill="#606060" fill-rule="evenodd"/>
</svg>
